<svg width="60" height="59" viewBox="0 0 60 59" fill="none" xmlns="http://www.w3.org/2000/svg">
<path d="M50.9391 14.9596C49.982 13.2718 48.4401 11.9929 46.6045 11.3642C44.6802 10.7039 43.0293 9.43814 41.9782 7.69548C41.2744 6.51861 40.2782 5.54374 39.0864 4.86555C37.8945 4.18736 36.5476 3.82889 35.1763 3.82495C34.0684 3.82495 33.0173 4.06342 32.0561 4.46698C30.75 5.03564 29.2807 5.03564 27.9746 4.46698C26.9813 4.04902 25.9154 3.83085 24.8378 3.82495C21.989 3.82495 19.5034 5.32914 18.0873 7.58542C16.9863 9.35151 15.3174 10.6906 13.3546 11.3826C11.4385 12.0571 9.84987 13.4339 8.90992 15.2348C8.22935 16.5435 7.91555 18.012 8.00177 19.4847C8.088 20.9573 8.57104 22.3791 9.3997 23.5995C9.99954 24.48 10.3261 25.5256 10.3261 26.5895V28.6734C11.3056 27.9818 10.4178 30.04 10.2802 30.6398V40.4868C10.2802 43.541 12.0999 46.2614 14.8661 47.3914H45.1333C47.8996 46.2614 49.7193 43.5392 49.7193 40.4868V31.557C49.479 30.627 48.0463 27.5398 49.6514 28.6569V26.5895C49.6514 25.5256 49.9779 24.48 50.5759 23.5995C51.4456 22.3404 51.9412 20.8609 52.0055 19.332C52.0698 17.8031 51.7001 16.2872 50.9391 14.9596Z" fill="#593B39"/>
<path d="M18.9936 33.175C18.9936 33.8977 18.8512 34.6133 18.5747 35.281C18.2981 35.9486 17.8927 36.5553 17.3817 37.0663C16.8707 37.5773 16.2641 37.9827 15.5964 38.2592C14.9287 38.5358 14.2131 38.6781 13.4904 38.6781C12.7677 38.6781 12.0521 38.5358 11.3845 38.2592C10.7168 37.9827 10.1101 37.5773 9.59913 37.0663C9.08812 36.5553 8.68276 35.9486 8.40621 35.281C8.12965 34.6133 7.9873 33.8977 7.9873 33.175C7.9873 31.7155 8.5671 30.3157 9.59913 29.2837C10.6312 28.2517 12.0309 27.6719 13.4904 27.6719C14.9499 27.6719 16.3497 28.2517 17.3817 29.2837C18.4138 30.3157 18.9936 31.7155 18.9936 33.175ZM52.0123 33.175C52.0123 33.8977 51.87 34.6133 51.5934 35.281C51.3168 35.9486 50.9115 36.5553 50.4005 37.0663C49.8895 37.5773 49.2828 37.9827 48.6151 38.2592C47.9475 38.5358 47.2319 38.6781 46.5092 38.6781C45.7865 38.6781 45.0709 38.5358 44.4032 38.2592C43.7356 37.9827 43.1289 37.5773 42.6179 37.0663C42.1069 36.5553 41.7015 35.9486 41.425 35.281C41.1484 34.6133 41.0061 33.8977 41.0061 33.175C41.0061 31.7155 41.5858 30.3157 42.6179 29.2837C43.6499 28.2517 45.0497 27.6719 46.5092 27.6719C47.9687 27.6719 49.3684 28.2517 50.4005 29.2837C51.4325 30.3157 52.0123 31.7155 52.0123 33.175Z" fill="#BB806E"/>
<path d="M12.4648 27.7471L13.4976 43.5392C13.9208 46.7638 15.5031 49.7241 17.949 51.8675C20.3949 54.011 23.5373 55.1911 26.7895 55.1875H33.241C36.4929 55.1906 39.6348 54.0104 42.0803 51.8669C44.5258 49.7235 46.1078 46.7634 46.531 43.5392L47.5179 27.7728C47.488 27.7671 47.458 27.7616 47.428 27.7562L47.639 24.2416C47.6023 21.6184 45.535 19.4539 42.9246 19.3438H38.1351C36.5319 19.3415 34.9638 18.8741 33.621 17.9982C32.2782 17.1223 31.2184 15.8756 30.5701 14.4093C30.4024 13.988 30.1123 13.6266 29.7373 13.3716C29.3623 13.1166 28.9196 12.9797 28.4661 12.9785H24.1113C17.7992 12.9785 12.5731 18.1515 12.5731 24.5351V27.7306C12.5369 27.7363 12.5008 27.7406 12.4648 27.7471Z" fill="#C68D7B"/>
<path d="M28.6919 32.3073L26.8759 38.1223C26.7898 38.3997 26.7704 38.6935 26.8194 38.9799C26.8683 39.2662 26.9843 39.5369 27.1577 39.7699C27.3312 40.0029 27.5573 40.1916 27.8175 40.3207C28.0777 40.4497 28.3648 40.5154 28.6553 40.5125H31.3444C32.6065 40.5125 33.4962 39.2981 33.1238 38.1205L31.3078 32.3055C30.917 31.0196 29.101 31.0196 28.6919 32.3055V32.3073Z" fill="#AB6A55"/>
<path d="M29.9997 43.9886C28.3531 43.9993 26.7281 43.6143 25.2615 42.866C24.7937 42.6275 24.2893 43.1558 24.5846 43.5814C25.1774 44.4739 25.9824 45.2054 26.9275 45.7103C27.8726 46.2152 28.9282 46.4777 29.9997 46.4742C31.0711 46.4777 32.1267 46.2152 33.0718 45.7103C34.0169 45.2054 34.8219 44.4739 35.4147 43.5814C35.7082 43.1393 35.2056 42.6275 34.7379 42.866C33.2719 43.6163 31.6464 44.0014 29.9997 43.9886Z" fill="#990838"/>
<path d="M17.1868 32.0138C17.4519 30.9609 18.0674 30.0296 18.9321 29.373C19.7968 28.7163 20.8592 28.3735 21.9446 28.4008C23.03 28.4281 24.0738 28.824 24.9043 29.5233C25.7349 30.2226 26.3028 31.1837 26.5146 32.2486C26.5354 32.3624 26.5308 32.4794 26.5011 32.5912C26.4715 32.703 26.4175 32.8069 26.343 32.8954C26.2685 32.9839 26.1753 33.0549 26.0702 33.1032C25.9651 33.1515 25.8506 33.176 25.735 33.175H18.1095C17.9664 33.1765 17.8249 33.1453 17.6957 33.0838C17.5665 33.0223 17.4531 32.9321 17.364 32.8201C17.275 32.7081 17.2128 32.5772 17.1821 32.4375C17.1513 32.2977 17.153 32.1528 17.1868 32.0138ZM42.813 32.0138C42.5489 30.984 41.9505 30.0709 41.1116 29.4179C40.2726 28.7649 39.2407 28.4088 38.1775 28.4056C37.0711 28.4029 35.9981 28.785 35.1424 29.4864C34.2867 30.1878 33.7015 31.165 33.487 32.2504C33.4665 32.3639 33.4713 32.4806 33.501 32.592C33.5307 32.7035 33.5846 32.807 33.6589 32.8953C33.7331 32.9836 33.8259 33.0544 33.9306 33.1027C34.0354 33.151 34.1495 33.1757 34.2648 33.175H41.8903C42.0334 33.1765 42.1749 33.1453 42.3041 33.0838C42.4333 33.0223 42.5467 32.9321 42.6357 32.8201C42.7247 32.7081 42.787 32.5772 42.8177 32.4375C42.8484 32.2977 42.8468 32.1528 42.813 32.0138Z" fill="white"/>
<path d="M19.4686 32.3624C19.4687 31.9269 19.5619 31.4965 19.742 31.1001C19.9222 30.7036 20.185 30.3503 20.513 30.0638C20.8409 29.7774 21.2264 29.5644 21.6435 29.4392C22.0605 29.314 22.4996 29.2795 22.9311 29.338C23.3626 29.3965 23.7766 29.5466 24.1452 29.7783C24.5139 30.0101 24.8288 30.318 25.0686 30.6814C25.3085 31.0448 25.4678 31.4554 25.5359 31.8855C25.604 32.3156 25.5792 32.7553 25.4634 33.175H19.5769C19.5036 32.9104 19.4684 32.637 19.4686 32.3624ZM40.5309 32.3624C40.5309 30.6638 39.1551 29.3082 37.4712 29.3082C37.07 29.3059 36.6724 29.3835 36.3014 29.5364C35.9305 29.6892 35.5937 29.9143 35.3105 30.1985C35.0273 30.4827 34.8035 30.8203 34.652 31.1918C34.5004 31.5633 34.4243 31.9612 34.428 32.3624C34.428 32.6504 34.4647 32.9219 34.538 33.175H40.4227C40.4961 32.9035 40.5328 32.6504 40.5328 32.3624H40.5309Z" fill="#7D4533"/>
<path d="M22.5284 30.627C22.8282 30.6262 23.123 30.703 23.3843 30.8498C23.6455 30.9967 23.8644 31.2087 24.0195 31.4652C24.1746 31.7216 24.2607 32.0139 24.2694 32.3135C24.2781 32.6131 24.2092 32.9098 24.0693 33.1749H20.9894C20.8495 32.9098 20.7806 32.6131 20.7893 32.3135C20.798 32.0139 20.8842 31.7216 21.0393 31.4652C21.1944 31.2087 21.4132 30.9967 21.6745 30.8498C21.9357 30.703 22.2306 30.6262 22.5303 30.627H22.5284ZM37.4529 30.627C37.1532 30.6262 36.8584 30.703 36.5971 30.8498C36.3358 30.9967 36.117 31.2087 35.9619 31.4652C35.8068 31.7216 35.7207 32.0139 35.712 32.3135C35.7032 32.6131 35.7721 32.9098 35.912 33.1749H38.992C39.1318 32.9098 39.2008 32.6131 39.192 32.3135C39.1833 32.0139 39.0972 31.7216 38.9421 31.4652C38.787 31.2087 38.5682 30.9967 38.3069 30.8498C38.0456 30.703 37.7526 30.6262 37.4529 30.627Z" fill="black"/>
<path d="M22.0202 31.1939C22.0202 31.4984 21.778 31.7442 21.479 31.7442C21.4072 31.7437 21.3362 31.7291 21.2701 31.7012C21.204 31.6733 21.144 31.6326 21.0936 31.5815C21.0431 31.5304 21.0033 31.4698 20.9763 31.4033C20.9492 31.3368 20.9356 31.2657 20.936 31.1939C20.936 30.8894 21.1782 30.6436 21.479 30.6436C21.778 30.6436 22.022 30.8894 22.022 31.1939H22.0202ZM37.0547 31.1939C37.0547 31.4984 36.8107 31.7442 36.5099 31.7442C36.4381 31.7437 36.3671 31.7291 36.301 31.7012C36.2348 31.6733 36.1748 31.6326 36.1244 31.5815C36.074 31.5304 36.0341 31.4698 36.0071 31.4033C35.9801 31.3368 35.9664 31.2657 35.9669 31.1939C35.9669 30.8894 36.2109 30.6436 36.5099 30.6436C36.8107 30.6436 37.0547 30.8894 37.0547 31.1939Z" fill="white"/>
<path d="M40.4154 22.4861C41.4702 22.8163 42.1673 23.3702 42.7671 23.893C42.9569 24.0584 43.0731 24.2925 43.0903 24.5436C43.1075 24.7947 43.0242 25.0424 42.8588 25.2321C42.6934 25.4219 42.4594 25.5381 42.2083 25.5553C41.9572 25.5725 41.7095 25.4893 41.5197 25.3238C40.9823 24.8542 40.5237 24.5076 39.845 24.2948C39.1516 24.0765 38.1445 23.9719 36.4991 24.1737C36.3754 24.1889 36.2499 24.1795 36.1298 24.1462C36.0097 24.1129 35.8973 24.0563 35.7991 23.9795C35.7009 23.9028 35.6188 23.8075 35.5575 23.699C35.4961 23.5905 35.4567 23.471 35.4415 23.3473C35.4264 23.2236 35.4357 23.0981 35.469 22.978C35.5023 22.858 35.559 22.7456 35.6357 22.6474C35.7125 22.5492 35.8078 22.4671 35.9163 22.4057C36.0247 22.3444 36.1442 22.305 36.2679 22.2898C38.0711 22.0697 39.3772 22.1577 40.4154 22.4861ZM19.6467 22.8786C19.0853 23.0988 18.6432 23.3354 18.3351 23.5207L17.8251 23.8582C17.6261 24.0122 17.4965 24.2389 17.4647 24.4885C17.4328 24.738 17.5015 24.99 17.6554 25.189C17.8094 25.388 18.0361 25.5177 18.2857 25.5495C18.5353 25.5813 18.7873 25.5127 18.9863 25.3587L18.9954 25.3514L19.0505 25.311C19.4557 25.0448 19.8872 24.8211 20.3382 24.6433C21.5172 24.1794 22.7936 24.0179 24.051 24.1737C24.3008 24.2043 24.5526 24.1345 24.7509 23.9795C24.9492 23.8245 25.0779 23.5971 25.1085 23.3473C25.1392 23.0975 25.0693 22.8457 24.9143 22.6474C24.7594 22.4491 24.5319 22.3204 24.2821 22.2898C22.712 22.0965 21.1185 22.2989 19.6467 22.8786Z" fill="#593B39"/>
</svg>
