<svg width="61" height="61" viewBox="0 0 61 61" fill="none" xmlns="http://www.w3.org/2000/svg">
<g clip-path="url(#clip0_1933_107203)">
<path d="M57.9994 37.646C58.0227 38.7483 57.6071 39.8148 56.8441 40.6108C56.0811 41.4067 55.0332 41.867 53.9308 41.8903L6.98639 42.8827C5.88404 42.906 4.81758 42.4904 4.02162 41.7274C3.22566 40.9644 2.76541 39.9165 2.7421 38.8141C2.7188 37.7118 3.13436 36.6453 3.89736 35.8494C4.66036 35.0534 5.7083 34.5932 6.81066 34.5698L53.7551 33.5774C54.8574 33.5541 55.9239 33.9697 56.7198 34.7327C57.5158 35.4957 57.976 36.5436 57.9994 37.646Z" fill="#FEF9EB"/>
<path d="M56.0375 41.8459L56.1112 45.3309C56.2176 50.3676 52.2201 54.5378 47.1825 54.6443L14.2677 55.3402C9.23011 55.4467 5.05987 51.4499 4.95337 46.4123L4.8797 42.9274L56.0375 41.8459Z" fill="#FBCB43"/>
<path d="M20.7554 42.5916L4.69849 42.9311C4.65031 42.9292 4.60398 42.912 4.56621 42.8821C2.21166 40.8 2.37003 37.0598 3.70735 35.6647C4.02654 35.3304 4.40872 35.0627 4.83187 34.8768C5.25502 34.6909 5.71077 34.5906 6.17286 34.5816L20.5796 34.2771C20.1174 34.2859 19.6615 34.3862 19.2382 34.5721C18.8149 34.7579 18.4326 35.0258 18.1133 35.3601C17.7927 35.6933 17.5413 36.0866 17.3734 36.5174C17.2056 36.9481 17.1247 37.4079 17.1354 37.8701C17.1765 39.8119 18.8127 42.6327 20.7554 42.5916Z" fill="#EDE2C5"/>
<path d="M2.62259 33.1595C2.6035 32.2567 2.94382 31.3833 3.56867 30.7315C4.19352 30.0797 5.05172 29.7027 5.95447 29.6837L54.404 28.6594C55.3068 28.6403 56.1801 28.9807 56.832 29.6055C57.4838 30.2304 57.8608 31.0886 57.8798 31.9913C57.8967 32.7896 57.4227 33.5275 56.6767 33.8101C54.4179 34.6652 54.072 37.6228 51.0928 37.6858C47.6406 37.7588 47.5596 33.9251 44.1074 33.9981C40.6552 34.0711 40.7363 37.9047 37.2841 37.9777C33.8302 38.0507 33.7491 34.2171 30.2961 34.2901C26.8456 34.363 26.9267 38.1967 23.4754 38.2696C20.0206 38.3427 19.9396 34.509 16.4857 34.582C13.0292 34.6551 13.1102 38.4887 9.65373 38.5618C6.66932 38.6249 6.1996 35.6836 3.9024 34.9257C3.14505 34.675 2.63944 33.9569 2.62259 33.1595Z" fill="#FDCF4F"/>
<path d="M23.5868 38.2707L23.4763 38.273C20.0172 38.3462 19.9362 34.5125 16.4866 34.5854C13.0275 34.6586 13.1086 38.4922 9.64949 38.5653C6.66767 38.6284 6.19608 35.6802 3.90503 34.9274C3.53461 34.8005 3.2125 34.5622 2.98289 34.2451C2.75327 33.9279 2.6274 33.5475 2.62252 33.156C2.60504 32.2534 2.94664 31.3808 3.57225 30.73C4.19786 30.0792 5.05627 29.7034 5.95883 29.6853L19.9902 29.3887C19.5438 29.3979 19.1035 29.495 18.6946 29.6744C18.2858 29.8538 17.9162 30.1121 17.6072 30.4344C17.2982 30.7567 17.0557 31.1367 16.8936 31.5528C16.7315 31.9688 16.653 32.4128 16.6625 32.8592C16.6794 33.6601 17.1806 34.3739 17.9364 34.6308C20.2109 35.3753 20.6976 38.2636 23.5868 38.2707Z" fill="#EFC03C"/>
<path d="M53.1828 28.6853C55.9238 28.6273 57.8892 26.0222 57.2062 23.3678C54.2573 11.9189 43.0041 5.98675 29.6942 6.26812C16.3774 6.54964 5.39008 12.952 2.93027 24.5152C2.36009 27.1961 4.43378 29.7158 7.17481 29.6579L53.1828 28.6853Z" fill="#FBCB43"/>
<path d="M28.3061 55.0467L14.2661 55.3435C9.23106 55.4499 5.06329 51.4471 4.95684 46.4121L4.88317 42.9271L18.9145 42.6305L18.9882 46.1155C19.0947 51.1505 23.2711 55.1531 28.3061 55.0467ZM16.9651 24.2194C16.4001 26.8993 18.4738 29.4199 21.2079 29.3621L7.17742 29.6587C4.43467 29.7167 2.36096 27.1961 2.93547 24.516C5.39175 12.9493 16.3791 6.54614 29.6941 6.26466C32.1219 6.21334 34.478 6.36816 36.7271 6.72902C26.6953 8.74825 18.9807 14.7585 16.9651 24.2194Z" fill="#EABB39"/>
<path d="M35.0345 42.2897L42.2699 49.2255C42.5023 49.4483 42.7763 49.6232 43.0764 49.7402C43.3764 49.8571 43.6965 49.9138 44.0185 49.907C44.3404 49.9002 44.6579 49.83 44.9527 49.7005C45.2475 49.571 45.5139 49.3847 45.7367 49.1522L52.6725 41.9168L35.0345 42.2897Z" fill="#FFC933"/>
<path d="M46.2977 48.5723L45.7393 49.1548C45.2884 49.623 44.6704 49.8935 44.0206 49.9072C43.3707 49.921 42.7419 49.6768 42.2716 49.2281L35.0336 42.2898L39.6509 42.1922L46.2977 48.5723Z" fill="#EFBA26"/>
<path d="M58.7308 31.9733C58.6968 30.3628 57.756 28.9935 56.4203 28.2973C56.6883 28.0697 56.9384 27.8089 57.1534 27.5228C57.6197 26.9087 57.941 26.197 58.0934 25.4411C58.2458 24.6852 58.2252 23.9046 58.0333 23.1577C55.1361 11.9081 44.2703 5.10686 29.6762 5.41538C15.0821 5.7239 4.51345 12.9791 2.09427 24.3403C1.67807 26.2996 2.45437 28.2639 3.92306 29.4071C2.61789 30.1582 1.73589 31.567 1.76994 33.1774C1.79028 34.1397 2.31113 35.0068 3.10521 35.4839C2.3 36.412 1.86693 37.6054 1.88951 38.8338C1.92463 40.4952 2.77396 41.952 4.04552 42.8377C4.04623 42.8714 4.02969 42.9054 4.03058 42.9477L4.10425 46.4327C4.22042 51.9277 8.78814 56.3063 14.2831 56.1901L47.2005 55.4942C52.6955 55.3781 57.0827 50.8102 56.9665 45.3152L56.8929 41.8302C56.892 41.7879 56.874 41.7538 56.8646 41.7203C57.4953 41.2438 58.004 40.6247 58.3492 39.9136C58.6943 39.2026 58.8661 38.4199 58.8504 37.6297C58.8234 36.3524 58.313 35.2036 57.5028 34.334C57.8887 34.0747 58.2034 33.7227 58.4179 33.3102C58.6324 32.8978 58.74 32.4381 58.7308 31.9733ZM3.76391 24.697C6.00412 14.1408 15.9527 7.4099 29.7122 7.11902C43.4709 6.82816 53.6959 13.1326 56.3801 23.576C56.5104 24.0751 56.5254 24.5973 56.4239 25.103C56.3224 25.6087 56.107 26.0846 55.7942 26.4947C55.4854 26.9025 55.0882 27.2351 54.6326 27.4675C54.1769 27.6999 53.6746 27.8262 53.1632 27.8369L7.15778 28.8094C4.97428 28.8556 3.30835 26.8367 3.76391 24.697ZM55.2638 45.3512C55.3601 49.9089 51.7239 53.6933 47.1662 53.7897L14.2462 54.4856C9.68937 54.582 5.90425 50.9544 5.8079 46.3967L5.75225 43.7644L34.7013 43.1524L41.6785 49.8398C41.9909 50.1411 42.3599 50.3776 42.764 50.5359C43.1682 50.6942 43.5996 50.7711 44.0336 50.7622C44.9123 50.7431 45.7474 50.3757 46.3553 49.7409L53.0436 42.7646L55.2081 42.7189L55.2638 45.3512ZM37.1127 43.1014L50.6331 42.8156L45.1199 48.566C44.5277 49.1829 43.48 49.2051 42.8622 48.6138L37.1127 43.1014ZM53.9198 41.0408L6.95987 42.0336C5.14557 42.0633 3.63153 40.6128 3.59316 38.7978C3.57264 37.8269 3.98924 36.9486 4.64894 36.338C4.94451 36.596 5.22371 36.8966 5.52866 37.2312C6.42782 38.2267 7.55294 39.4558 9.67517 39.4109C11.7793 39.3664 12.8522 38.1246 13.7178 37.1263C14.5167 36.1976 15.1573 35.4597 16.5028 35.4312C17.8491 35.4028 18.5204 36.113 19.3578 37.0071C20.264 37.9679 21.3893 39.1633 23.4934 39.1188C25.5975 39.0743 26.6704 37.8325 27.5274 36.8344C28.3349 35.9055 28.9669 35.1677 30.3132 35.1393C31.6596 35.1108 32.3308 35.8211 33.1674 36.7151C34.0744 37.676 35.1988 38.8714 37.3029 38.8269C39.4079 38.7824 40.4808 37.5405 41.3378 36.5424C42.1445 35.6136 42.7773 34.8758 44.1228 34.8474C45.4683 34.8189 46.1403 35.5291 46.9778 36.4232C47.884 37.384 49.0092 38.5794 51.1134 38.5349C53.2261 38.4903 54.2983 37.2148 55.1545 36.1821C55.4451 35.8349 55.7111 35.5142 56.0042 35.2437C56.6815 35.8338 57.1262 36.6948 57.1468 37.6657C57.1634 38.5403 56.8335 39.3861 56.229 40.0184C55.6244 40.6507 54.7943 41.0183 53.9198 41.0408ZM56.3749 33.0109C55.216 33.4533 54.4935 34.3216 53.8448 35.0848C53.0467 36.048 52.4151 36.803 51.0773 36.8313C49.731 36.8597 49.0599 36.1573 48.2232 35.2545C47.3161 34.2937 46.1917 33.0992 44.0868 33.1437C41.9827 33.1882 40.9098 34.4292 40.0527 35.4273C39.2454 36.3656 38.6133 37.0948 37.2678 37.1232C35.9214 37.1517 35.2504 36.4492 34.4128 35.5465C33.5057 34.5857 32.3813 33.3912 30.2772 33.4356C28.1731 33.4801 27.0993 34.7211 26.2423 35.7192C25.4359 36.6576 24.8037 37.3867 23.4573 37.4152C22.111 37.4436 21.4399 36.7412 20.6032 35.8384C19.6961 34.8776 18.5717 33.6831 16.4668 33.7276C14.3627 33.7721 13.2898 35.0131 12.4241 36.0113C11.6177 36.9497 10.9846 37.6788 9.63915 37.7073C8.2928 37.7357 7.62983 37.0072 6.78306 36.0797C6.11129 35.3435 5.35193 34.5074 4.16849 34.1145C3.96687 34.0432 3.79209 33.9116 3.66791 33.7375C3.54373 33.5634 3.47618 33.3553 3.47445 33.1414C3.4677 32.8063 3.52705 32.4732 3.6491 32.1611C3.77114 31.849 3.95349 31.564 4.18573 31.3224C4.41797 31.0808 4.69554 30.8873 5.00259 30.753C5.30963 30.6187 5.64013 30.5462 5.9752 30.5397L54.4265 29.5154C55.1018 29.5018 55.7549 29.7569 56.2424 30.2244C56.7299 30.692 57.0118 31.334 57.0263 32.0093C57.0359 32.4607 56.7723 32.8583 56.374 33.0117L56.3749 33.0109Z" fill="#060606"/>
<path d="M15.4129 18.0623C15.4562 18.1655 15.5195 18.2591 15.599 18.3378C15.6785 18.4166 15.7728 18.4789 15.8764 18.5212C15.98 18.5635 16.0909 18.585 16.2028 18.5844C16.3147 18.5838 16.4254 18.5612 16.5286 18.5179C16.6317 18.4746 16.7254 18.4113 16.8041 18.3318C16.8828 18.2523 16.9451 18.158 16.9874 18.0544C17.0297 17.9508 17.0512 17.8399 17.0507 17.728C17.0501 17.6161 17.0275 17.5054 16.9842 17.4022L16.426 16.0757C16.3325 15.8764 16.1655 15.7211 15.9601 15.642C15.7546 15.563 15.5266 15.5665 15.3236 15.6518C15.1207 15.737 14.9585 15.8974 14.8711 16.0995C14.7837 16.3015 14.7778 16.5295 14.8547 16.7358L15.4129 18.0623ZM21.3783 12.8748L22.7179 11.2223C22.86 11.0465 22.9266 10.8216 22.9031 10.5968C22.8796 10.3719 22.7679 10.1656 22.5924 10.0231C22.4167 9.8811 22.1918 9.81451 21.9671 9.83787C21.7423 9.86123 21.536 9.97264 21.3932 10.1477L20.0544 11.801C19.9123 11.9768 19.8457 12.2018 19.8693 12.4266C19.8928 12.6514 20.0045 12.8577 20.1799 13.0002C20.3558 13.1421 20.5807 13.2086 20.8055 13.185C21.0302 13.1615 21.2356 13.05 21.3783 12.8748ZM31.9938 15.8381C32.1696 15.9801 32.3944 16.0467 32.6191 16.0233C32.8439 16 33.0502 15.8886 33.193 15.7135L34.5335 14.0602C34.6756 13.8844 34.7422 13.6594 34.7187 13.4346C34.6952 13.2098 34.5834 13.0035 34.408 12.8609C34.2321 12.719 34.0072 12.6526 33.7825 12.6761C33.5577 12.6996 33.3515 12.8112 33.2088 12.9864L31.8683 14.6389C31.7262 14.8147 31.6596 15.0396 31.6831 15.2645C31.7066 15.4893 31.8184 15.6956 31.9938 15.8381ZM25.2503 17.9174C25.4311 18.0528 25.6583 18.1108 25.8819 18.0787C26.1055 18.0466 26.3071 17.927 26.4425 17.7462C26.578 17.5654 26.636 17.3383 26.6039 17.1147C26.5718 16.8911 26.4522 16.6894 26.2714 16.554L25.4511 15.9393C25.3616 15.8722 25.2597 15.8234 25.1514 15.7957C25.043 15.7679 24.9302 15.7618 24.8194 15.7777C24.7087 15.7935 24.6021 15.831 24.5059 15.888C24.4096 15.9451 24.3256 16.0205 24.2584 16.11C24.1913 16.1995 24.1425 16.3014 24.1148 16.4098C24.0871 16.5182 24.0809 16.631 24.0968 16.7417C24.1126 16.8525 24.1502 16.959 24.2072 17.0552C24.2642 17.1515 24.3396 17.2356 24.4292 17.3027L25.2503 17.9174ZM38.8898 11.2569C39.0715 11.3786 39.2928 11.426 39.5083 11.3893C39.7239 11.3527 39.9171 11.2347 40.0482 11.0598C40.1794 10.8849 40.2384 10.6664 40.2132 10.4492C40.188 10.2321 40.0804 10.0328 39.9127 9.89265L39.0924 9.27796C38.911 9.15282 38.6883 9.10273 38.4708 9.13818C38.2533 9.17363 38.058 9.29187 37.9258 9.46812C37.7935 9.64438 37.7346 9.86497 37.7614 10.0837C37.7882 10.3024 37.8987 10.5022 38.0695 10.6414L38.8898 11.256L38.8898 11.2569ZM39.8542 15.988C39.7861 15.7763 39.6381 15.5997 39.4416 15.4955C39.2452 15.3914 39.0159 15.3682 38.8025 15.4306C38.5892 15.4931 38.4087 15.6364 38.2994 15.8301C38.1902 16.0237 38.1609 16.2523 38.2177 16.4672L38.5974 17.7638C38.6655 17.9755 38.8135 18.1522 39.0099 18.2563C39.2064 18.3604 39.4357 18.3837 39.649 18.3212C39.8624 18.2587 40.0429 18.1154 40.1521 17.9218C40.2614 17.7281 40.2907 17.4995 40.2338 17.2846L39.8542 15.988ZM43.8631 15.8272C44.2893 15.851 44.7211 15.487 44.7287 14.9887L44.7486 13.7682C44.7505 13.6563 44.7304 13.5451 44.6892 13.441C44.6481 13.3369 44.5868 13.2419 44.5089 13.1615C44.431 13.0811 44.338 13.0168 44.2353 12.9724C44.1325 12.928 44.022 12.9043 43.9101 12.9027C43.4343 12.8583 43.0518 13.2705 43.0445 13.7412L43.0246 14.9617C43.0227 15.0736 43.0428 15.1848 43.084 15.2889C43.1251 15.393 43.1864 15.488 43.2643 15.5684C43.3422 15.6488 43.4352 15.7131 43.5379 15.7575C43.6407 15.8019 43.7512 15.8256 43.8631 15.8272ZM31.533 11.4392L32.1717 10.4915C32.2882 10.3041 32.3276 10.0788 32.2815 9.86301C32.2354 9.64721 32.1074 9.45768 31.9245 9.33424C31.7416 9.21079 31.518 9.16304 31.3006 9.20102C31.0833 9.23899 30.8891 9.35974 30.7589 9.53788L30.1192 10.4856C29.9927 10.6731 29.9458 10.9032 29.9888 11.1252C30.0319 11.3473 30.1614 11.5432 30.3489 11.6697C30.5364 11.7963 30.7664 11.8432 30.9885 11.8001C31.2106 11.7571 31.4064 11.6275 31.533 11.4401L31.533 11.4392Z" fill="#060606"/>
</g>
<defs>
<clipPath id="clip0_1933_107203">
<rect width="58.7001" height="58.7001" fill="white" transform="translate(0.245361 1.90521) rotate(-1.21106)"/>
</clipPath>
</defs>
</svg>
