<svg width="59" height="60" viewBox="0 0 59 60" fill="none" xmlns="http://www.w3.org/2000/svg">
<path d="M34.7316 38.1593H55.8392V29.3665C55.8362 27.4956 55.3564 25.6563 54.445 24.0224L49.0275 14.4102C48.5163 13.4973 47.7709 12.7372 46.868 12.2084C45.9652 11.6796 44.9376 11.4012 43.8913 11.4019H34.7316V38.1593Z" fill="#FFFCE5"/>
<path d="M43.8913 11.4019C44.9376 11.4012 45.9652 11.6796 46.868 12.2084C47.7709 12.7372 48.5163 13.4973 49.0275 14.4102L54.4328 24.0224C55.3515 25.6539 55.8358 27.4941 55.8392 29.3665V33.3899C55.837 31.5212 55.3526 29.6847 54.4328 28.058L49.0275 18.4336C48.5138 17.5238 47.7674 16.7669 46.8649 16.2404C45.9624 15.714 44.9361 15.4368 43.8913 15.4375H34.7316V11.4019H43.8913Z" fill="white"/>
<path d="M34.7316 38.1593H55.8392V29.3665C55.8362 27.4956 55.3564 25.6563 54.445 24.0224L49.0275 14.4102C48.5163 13.4973 47.7709 12.7372 46.868 12.2084C45.9652 11.6796 44.9376 11.4012 43.8913 11.4019H34.7316V38.1593Z" stroke="#45413C" stroke-width="1.22917" stroke-linecap="round" stroke-linejoin="round"/>
<path d="M56.9153 38.1592H2.70345V46.2549H56.9153V38.1592Z" fill="#FF3810"/>
<path d="M4.26878 38.1591H55.35C55.7652 38.1591 56.1633 38.324 56.4569 38.6176C56.7504 38.9111 56.9153 39.3093 56.9153 39.7244V42.9774C56.9153 42.5622 56.7504 42.1641 56.4569 41.8705C56.1633 41.577 55.7652 41.4121 55.35 41.4121H4.26878C4.06219 41.4104 3.85732 41.4497 3.66599 41.5277C3.47467 41.6056 3.30066 41.7207 3.15401 41.8662C3.00735 42.0117 2.89096 42.1848 2.81153 42.3755C2.7321 42.5662 2.69121 42.7708 2.69122 42.9774V39.7244C2.69121 39.5178 2.7321 39.3133 2.81153 39.1226C2.89096 38.9319 3.00735 38.7588 3.15401 38.6132C3.30066 38.4677 3.47467 38.3527 3.66599 38.2747C3.85732 38.1968 4.06219 38.1575 4.26878 38.1591Z" fill="#FF866E"/>
<path d="M56.9153 38.1592H2.70344V46.2549H56.9153V38.1592Z" stroke="#45413C" stroke-width="1.22917" stroke-linecap="round" stroke-linejoin="round"/>
<path d="M33.1418 6.90137H5.01476C4.59312 6.90137 4.18875 7.06886 3.8906 7.36701C3.59246 7.66515 3.42496 8.06952 3.42496 8.49116V38.1591H34.7316V8.49116C34.7316 8.06952 34.5641 7.66515 34.266 7.36701C33.9678 7.06886 33.5635 6.90137 33.1418 6.90137Z" fill="#FFB21C"/>
<path d="M5.0759 6.90137H33.1418C33.5635 6.90137 33.9678 7.06886 34.266 7.36701C34.5641 7.66515 34.7316 8.06952 34.7316 8.49116V12.539C34.7316 12.1174 34.5641 11.713 34.266 11.4149C33.9678 11.1167 33.5635 10.9492 33.1418 10.9492H5.0759C4.65313 10.9492 4.24749 11.1163 3.9474 11.4141C3.64731 11.7119 3.47711 12.1163 3.47388 12.539V8.49116C3.47711 8.0684 3.64731 7.66405 3.9474 7.36626C4.24749 7.06846 4.65313 6.90135 5.0759 6.90137Z" fill="#FFEF65"/>
<path d="M33.1418 6.90137H5.01476C4.59312 6.90137 4.18875 7.06886 3.8906 7.36701C3.59246 7.66515 3.42496 8.06952 3.42496 8.49116V38.1591H34.7316V8.49116C34.7316 8.06952 34.5641 7.66515 34.266 7.36701C33.9678 7.06886 33.5635 6.90137 33.1418 6.90137Z" stroke="#45413C" stroke-width="1.22917" stroke-linecap="round" stroke-linejoin="round"/>
<path d="M51.0576 46.255C51.0576 47.013 50.9083 47.7636 50.6182 48.4639C50.3281 49.1642 49.9029 49.8005 49.3669 50.3365C48.8309 50.8725 48.1946 51.2977 47.4943 51.5877C46.794 51.8778 46.0434 52.0271 45.2854 52.0271C44.5274 52.0271 43.7768 51.8778 43.0765 51.5877C42.3762 51.2977 41.7398 50.8725 41.2039 50.3365C40.6679 49.8005 40.2427 49.1642 39.9526 48.4639C39.6625 47.7636 39.5132 47.013 39.5132 46.255C39.5132 44.7241 40.1214 43.2559 41.2039 42.1734C42.2863 41.0909 43.7545 40.4828 45.2854 40.4828C46.8163 40.4828 48.2844 41.0909 49.3669 42.1734C50.4494 43.2559 51.0576 44.7241 51.0576 46.255ZM21.2918 46.255C21.2918 47.7858 20.6836 49.254 19.6011 50.3365C18.5186 51.419 17.0505 52.0271 15.5196 52.0271C13.9887 52.0271 12.5205 51.419 11.4381 50.3365C10.3556 49.254 9.74743 47.7858 9.74743 46.255C9.74743 44.7241 10.3556 43.2559 11.4381 42.1734C12.5205 41.0909 13.9887 40.4828 15.5196 40.4828C17.0505 40.4828 18.5186 41.0909 19.6011 42.1734C20.6836 43.2559 21.2918 44.7241 21.2918 46.255Z" fill="#656769"/>
<path d="M45.2854 42.7695C43.9537 42.7706 42.6632 43.231 41.6317 44.0732C40.6001 44.9153 39.8907 46.0876 39.6233 47.3922C39.4575 46.5553 39.4792 45.6921 39.687 44.8646C39.8948 44.0372 40.2834 43.2661 40.8248 42.6068C41.3663 41.9476 42.0472 41.4165 42.8185 41.0519C43.5897 40.6873 44.4323 40.4982 45.2854 40.4982C46.1385 40.4982 46.981 40.6873 47.7523 41.0519C48.5236 41.4165 49.2045 41.9476 49.746 42.6068C50.2874 43.2661 50.676 44.0372 50.8838 44.8646C51.0915 45.6921 51.1133 46.5553 50.9475 47.3922C50.68 46.0876 49.9707 44.9153 48.9391 44.0732C47.9076 43.231 46.6171 42.7706 45.2854 42.7695ZM15.5196 42.7695C14.1879 42.7706 12.8974 43.231 11.8659 44.0732C10.8343 44.9153 10.125 46.0876 9.85749 47.3922C9.69169 46.5553 9.71345 45.6921 9.92121 44.8646C10.129 44.0372 10.5176 43.2661 11.059 42.6068C11.6005 41.9476 12.2814 41.4165 13.0527 41.0519C13.8239 40.6873 14.6665 40.4982 15.5196 40.4982C16.3727 40.4982 17.2152 40.6873 17.9865 41.0519C18.7578 41.4165 19.4387 41.9476 19.9802 42.6068C20.5216 43.2661 20.9102 44.0372 21.118 44.8646C21.3257 45.6921 21.3475 46.5553 21.1817 47.3922C20.9142 46.0876 20.2049 44.9153 19.1733 44.0732C18.1418 43.231 16.8513 42.7706 15.5196 42.7695Z" fill="#525252"/>
<path d="M51.0576 46.255C51.0576 47.013 50.9083 47.7636 50.6182 48.4639C50.3281 49.1642 49.9029 49.8005 49.3669 50.3365C48.8309 50.8725 48.1946 51.2977 47.4943 51.5877C46.794 51.8778 46.0434 52.0271 45.2854 52.0271C44.5274 52.0271 43.7768 51.8778 43.0765 51.5877C42.3762 51.2977 41.7398 50.8725 41.2039 50.3365C40.6679 49.8005 40.2427 49.1642 39.9526 48.4639C39.6625 47.7636 39.5132 47.013 39.5132 46.255C39.5132 44.7241 40.1214 43.2559 41.2039 42.1734C42.2863 41.0909 43.7545 40.4828 45.2854 40.4828C46.8163 40.4828 48.2844 41.0909 49.3669 42.1734C50.4494 43.2559 51.0576 44.7241 51.0576 46.255ZM21.2918 46.255C21.2918 47.7858 20.6836 49.254 19.6011 50.3365C18.5186 51.419 17.0505 52.0271 15.5196 52.0271C13.9887 52.0271 12.5205 51.419 11.4381 50.3365C10.3556 49.254 9.74743 47.7858 9.74743 46.255C9.74743 44.7241 10.3556 43.2559 11.4381 42.1734C12.5205 41.0909 13.9887 40.4828 15.5196 40.4828C17.0505 40.4828 18.5186 41.0909 19.6011 42.1734C20.6836 43.2559 21.2918 44.7241 21.2918 46.255Z" stroke="#45413C" stroke-width="1.22917" stroke-linecap="round" stroke-linejoin="round"/>
<path d="M55.8392 29.9901H34.7316V38.147H55.8392V29.9901Z" fill="#FF3810" stroke="#45413C" stroke-width="1.22917" stroke-linecap="round" stroke-linejoin="round"/>
<path d="M41.0541 15.6575H49.7368L54.4451 24.0222C54.5796 24.2668 54.7019 24.5236 54.8242 24.7804H43.3899C43.1566 24.7787 42.9265 24.7264 42.7154 24.6272C42.5043 24.5279 42.3172 24.3841 42.167 24.2057L39.8312 21.3807C39.5924 21.0966 39.4624 20.7368 39.4643 20.3657V17.2595C39.4643 16.8367 39.6314 16.4311 39.9292 16.131C40.227 15.8309 40.6314 15.6607 41.0541 15.6575Z" fill="#00B8F0"/>
<path d="M41.0541 15.6575H44.784L49.6757 24.7804H43.4143C43.1809 24.7795 42.9505 24.7276 42.7393 24.6283C42.5281 24.529 42.3411 24.3848 42.1914 24.2057L39.8556 21.3807C39.6169 21.0966 39.4869 20.7368 39.4888 20.3657V17.2595C39.4887 16.8409 39.6524 16.4389 39.9449 16.1395C40.2375 15.8401 40.6356 15.6671 41.0541 15.6575Z" fill="#4ACFFF"/>
<path d="M41.0541 15.6575H49.7368L54.4451 24.0222C54.5796 24.2668 54.7019 24.5236 54.8242 24.7804H43.3899C43.1566 24.7787 42.9265 24.7264 42.7154 24.6272C42.5043 24.5279 42.3172 24.3841 42.167 24.2057L39.8312 21.3807C39.5924 21.0966 39.4624 20.7368 39.4643 20.3657V17.2595C39.4643 16.8367 39.6314 16.4311 39.9292 16.131C40.227 15.8309 40.6314 15.6607 41.0541 15.6575Z" stroke="#45413C" stroke-width="1.22917" stroke-linecap="round" stroke-linejoin="round"/>
<path d="M53.0509 31.4087C53.0509 31.117 53.1086 30.8282 53.2206 30.5588C53.3326 30.2895 53.4967 30.0449 53.7035 29.8392C53.9104 29.6335 54.1558 29.4707 54.4258 29.3602C54.6958 29.2497 54.9849 29.1936 55.2766 29.1952H56.5851V33.6833H55.2766C54.9797 33.6851 54.6855 33.6271 54.4114 33.5128C54.1374 33.3985 53.8891 33.2302 53.6815 33.0179C53.4738 32.8057 53.311 32.5539 53.2026 32.2774C53.0943 32.001 53.0427 31.7055 53.0509 31.4087Z" fill="#FF8A14" stroke="#45413C" stroke-width="1.22917" stroke-linecap="round" stroke-linejoin="round"/>
<path d="M34.7316 14.5691H3.47388M34.7316 22.5303H3.47388M34.7316 30.6871H3.47388" stroke="#45413C" stroke-width="1.22917" stroke-linecap="round" stroke-linejoin="round"/>
<path d="M47.1809 46.2549C47.1809 46.5038 47.1319 46.7503 47.0366 46.9803C46.9414 47.2103 46.8017 47.4192 46.6257 47.5952C46.4497 47.7712 46.2407 47.9109 46.0108 48.0061C45.7808 48.1014 45.5343 48.1504 45.2854 48.1504C45.0365 48.1504 44.79 48.1014 44.56 48.0061C44.33 47.9109 44.1211 47.7712 43.9451 47.5952C43.769 47.4192 43.6294 47.2103 43.5342 46.9803C43.4389 46.7503 43.3899 46.5038 43.3899 46.2549C43.3899 46.006 43.4389 45.7595 43.5342 45.5295C43.6294 45.2995 43.769 45.0906 43.9451 44.9146C44.1211 44.7385 44.33 44.5989 44.56 44.5037C44.79 44.4084 45.0365 44.3594 45.2854 44.3594C45.5343 44.3594 45.7808 44.4084 46.0108 44.5037C46.2407 44.5989 46.4497 44.7385 46.6257 44.9146C46.8017 45.0906 46.9414 45.2995 47.0366 45.5295C47.1319 45.7595 47.1809 46.006 47.1809 46.2549ZM17.4151 46.2549C17.4151 46.7576 17.2154 47.2398 16.8599 47.5952C16.5044 47.9507 16.0223 48.1504 15.5196 48.1504C15.0169 48.1504 14.5347 47.9507 14.1793 47.5952C13.8238 47.2398 13.6241 46.7576 13.6241 46.2549C13.6241 45.7522 13.8238 45.27 14.1793 44.9146C14.5347 44.5591 15.0169 44.3594 15.5196 44.3594C16.0223 44.3594 16.5044 44.5591 16.8599 44.9146C17.2154 45.27 17.4151 45.7522 17.4151 46.2549Z" fill="#DAEDF7" stroke="#45413C" stroke-width="1.22917" stroke-linecap="round" stroke-linejoin="round"/>
</svg>
